<mxfile host="app.diagrams.net" modified="2024-01-03T20:13:39.428Z" agent="Mozilla/5.0 (Windows NT 10.0; Win64; x64) AppleWebKit/537.36 (KHTML, like Gecko) Chrome/120.0.0.0 Safari/537.36" etag="8sshqCytz2H2qGDiLBNX" version="22.1.16" type="device">
  <diagram id="C5RBs43oDa-KdzZeNtuy" name="Page-1">
    <mxGraphModel dx="894" dy="566" grid="0" gridSize="10" guides="1" tooltips="1" connect="1" arrows="1" fold="1" page="1" pageScale="1" pageWidth="827" pageHeight="1169" background="#000000" math="0" shadow="0">
      <root>
        <mxCell id="WIyWlLk6GJQsqaUBKTNV-0" />
        <mxCell id="WIyWlLk6GJQsqaUBKTNV-1" parent="WIyWlLk6GJQsqaUBKTNV-0" />
        <mxCell id="UM6hMzColTXgQJrgNyn_-1" value="個人訊息管理系統" style="ellipse;whiteSpace=wrap;html=1;labelBackgroundColor=none;fillColor=#B1DDF0;strokeColor=#BAC8D3;fontColor=#182E3E;" vertex="1" parent="WIyWlLk6GJQsqaUBKTNV-1">
          <mxGeometry x="320" y="210" width="160" height="100" as="geometry" />
        </mxCell>
        <mxCell id="UM6hMzColTXgQJrgNyn_-21" style="edgeStyle=orthogonalEdgeStyle;rounded=0;orthogonalLoop=1;jettySize=auto;html=1;exitX=0.25;exitY=0;exitDx=0;exitDy=0;entryX=0.5;entryY=1;entryDx=0;entryDy=0;labelBackgroundColor=none;strokeColor=#EEEEEE;fontColor=default;" edge="1" parent="WIyWlLk6GJQsqaUBKTNV-1" source="UM6hMzColTXgQJrgNyn_-2" target="UM6hMzColTXgQJrgNyn_-13">
          <mxGeometry relative="1" as="geometry" />
        </mxCell>
        <mxCell id="UM6hMzColTXgQJrgNyn_-22" style="edgeStyle=orthogonalEdgeStyle;rounded=0;orthogonalLoop=1;jettySize=auto;html=1;exitX=0.75;exitY=0;exitDx=0;exitDy=0;entryX=0.5;entryY=1;entryDx=0;entryDy=0;labelBackgroundColor=none;strokeColor=#EEEEEE;fontColor=default;" edge="1" parent="WIyWlLk6GJQsqaUBKTNV-1" source="UM6hMzColTXgQJrgNyn_-2" target="UM6hMzColTXgQJrgNyn_-14">
          <mxGeometry relative="1" as="geometry" />
        </mxCell>
        <mxCell id="UM6hMzColTXgQJrgNyn_-2" value="通訊錄" style="shape=process;whiteSpace=wrap;html=1;backgroundOutline=1;labelBackgroundColor=none;fillColor=#B1DDF0;strokeColor=#BAC8D3;fontColor=#182E3E;" vertex="1" parent="WIyWlLk6GJQsqaUBKTNV-1">
          <mxGeometry x="120" y="130" width="120" height="60" as="geometry" />
        </mxCell>
        <mxCell id="UM6hMzColTXgQJrgNyn_-30" style="edgeStyle=orthogonalEdgeStyle;rounded=0;orthogonalLoop=1;jettySize=auto;html=1;exitX=0.75;exitY=1;exitDx=0;exitDy=0;entryX=0.5;entryY=0;entryDx=0;entryDy=0;labelBackgroundColor=none;strokeColor=#EEEEEE;fontColor=default;" edge="1" parent="WIyWlLk6GJQsqaUBKTNV-1" source="UM6hMzColTXgQJrgNyn_-3" target="UM6hMzColTXgQJrgNyn_-23">
          <mxGeometry relative="1" as="geometry" />
        </mxCell>
        <mxCell id="UM6hMzColTXgQJrgNyn_-31" style="edgeStyle=orthogonalEdgeStyle;rounded=0;orthogonalLoop=1;jettySize=auto;html=1;exitX=0.25;exitY=1;exitDx=0;exitDy=0;entryX=0.5;entryY=0;entryDx=0;entryDy=0;labelBackgroundColor=none;strokeColor=#EEEEEE;fontColor=default;" edge="1" parent="WIyWlLk6GJQsqaUBKTNV-1" source="UM6hMzColTXgQJrgNyn_-3" target="UM6hMzColTXgQJrgNyn_-17">
          <mxGeometry relative="1" as="geometry" />
        </mxCell>
        <mxCell id="UM6hMzColTXgQJrgNyn_-3" value="備忘錄" style="shape=process;whiteSpace=wrap;html=1;backgroundOutline=1;labelBackgroundColor=none;fillColor=#B1DDF0;strokeColor=#BAC8D3;fontColor=#182E3E;" vertex="1" parent="WIyWlLk6GJQsqaUBKTNV-1">
          <mxGeometry x="120" y="320" width="120" height="60" as="geometry" />
        </mxCell>
        <mxCell id="UM6hMzColTXgQJrgNyn_-26" style="edgeStyle=orthogonalEdgeStyle;rounded=0;orthogonalLoop=1;jettySize=auto;html=1;exitX=0.25;exitY=0;exitDx=0;exitDy=0;entryX=0.5;entryY=1;entryDx=0;entryDy=0;labelBackgroundColor=none;strokeColor=#EEEEEE;fontColor=default;" edge="1" parent="WIyWlLk6GJQsqaUBKTNV-1" source="UM6hMzColTXgQJrgNyn_-4" target="UM6hMzColTXgQJrgNyn_-15">
          <mxGeometry relative="1" as="geometry" />
        </mxCell>
        <mxCell id="UM6hMzColTXgQJrgNyn_-27" style="edgeStyle=orthogonalEdgeStyle;rounded=0;orthogonalLoop=1;jettySize=auto;html=1;exitX=0.75;exitY=0;exitDx=0;exitDy=0;entryX=0.5;entryY=1;entryDx=0;entryDy=0;labelBackgroundColor=none;strokeColor=#EEEEEE;fontColor=default;" edge="1" parent="WIyWlLk6GJQsqaUBKTNV-1" source="UM6hMzColTXgQJrgNyn_-4" target="UM6hMzColTXgQJrgNyn_-16">
          <mxGeometry relative="1" as="geometry" />
        </mxCell>
        <mxCell id="UM6hMzColTXgQJrgNyn_-4" value="個人日誌" style="shape=process;whiteSpace=wrap;html=1;backgroundOutline=1;labelBackgroundColor=none;fillColor=#B1DDF0;strokeColor=#BAC8D3;fontColor=#182E3E;" vertex="1" parent="WIyWlLk6GJQsqaUBKTNV-1">
          <mxGeometry x="560" y="120" width="120" height="60" as="geometry" />
        </mxCell>
        <mxCell id="UM6hMzColTXgQJrgNyn_-28" style="edgeStyle=orthogonalEdgeStyle;rounded=0;orthogonalLoop=1;jettySize=auto;html=1;exitX=0.75;exitY=1;exitDx=0;exitDy=0;entryX=0.5;entryY=0;entryDx=0;entryDy=0;labelBackgroundColor=none;strokeColor=#EEEEEE;fontColor=default;" edge="1" parent="WIyWlLk6GJQsqaUBKTNV-1" source="UM6hMzColTXgQJrgNyn_-5" target="UM6hMzColTXgQJrgNyn_-25">
          <mxGeometry relative="1" as="geometry" />
        </mxCell>
        <mxCell id="UM6hMzColTXgQJrgNyn_-29" style="edgeStyle=orthogonalEdgeStyle;rounded=0;orthogonalLoop=1;jettySize=auto;html=1;exitX=0.25;exitY=1;exitDx=0;exitDy=0;entryX=0.5;entryY=0;entryDx=0;entryDy=0;labelBackgroundColor=none;strokeColor=#EEEEEE;fontColor=default;" edge="1" parent="WIyWlLk6GJQsqaUBKTNV-1" source="UM6hMzColTXgQJrgNyn_-5" target="UM6hMzColTXgQJrgNyn_-24">
          <mxGeometry relative="1" as="geometry" />
        </mxCell>
        <mxCell id="UM6hMzColTXgQJrgNyn_-5" value="個人財務" style="shape=process;whiteSpace=wrap;html=1;backgroundOutline=1;labelBackgroundColor=none;fillColor=#B1DDF0;strokeColor=#BAC8D3;fontColor=#182E3E;" vertex="1" parent="WIyWlLk6GJQsqaUBKTNV-1">
          <mxGeometry x="560" y="320" width="120" height="60" as="geometry" />
        </mxCell>
        <mxCell id="UM6hMzColTXgQJrgNyn_-9" value="" style="shape=flexArrow;endArrow=classic;html=1;rounded=0;exitX=1;exitY=0;exitDx=0;exitDy=0;entryX=0.038;entryY=0.71;entryDx=0;entryDy=0;entryPerimeter=0;labelBackgroundColor=none;strokeColor=#EEEEEE;fontColor=default;" edge="1" parent="WIyWlLk6GJQsqaUBKTNV-1" source="UM6hMzColTXgQJrgNyn_-3" target="UM6hMzColTXgQJrgNyn_-1">
          <mxGeometry width="50" height="50" relative="1" as="geometry">
            <mxPoint x="290" y="340" as="sourcePoint" />
            <mxPoint x="340" y="290" as="targetPoint" />
          </mxGeometry>
        </mxCell>
        <mxCell id="UM6hMzColTXgQJrgNyn_-10" value="" style="shape=flexArrow;endArrow=classic;html=1;rounded=0;exitX=0;exitY=1;exitDx=0;exitDy=0;entryX=0.817;entryY=0.05;entryDx=0;entryDy=0;entryPerimeter=0;labelBackgroundColor=none;strokeColor=#EEEEEE;fontColor=default;" edge="1" parent="WIyWlLk6GJQsqaUBKTNV-1" source="UM6hMzColTXgQJrgNyn_-4" target="UM6hMzColTXgQJrgNyn_-1">
          <mxGeometry width="50" height="50" relative="1" as="geometry">
            <mxPoint x="240" y="380" as="sourcePoint" />
            <mxPoint x="350" y="300" as="targetPoint" />
          </mxGeometry>
        </mxCell>
        <mxCell id="UM6hMzColTXgQJrgNyn_-11" value="" style="shape=flexArrow;endArrow=classic;html=1;rounded=0;exitX=1;exitY=1;exitDx=0;exitDy=0;entryX=0.1;entryY=0.113;entryDx=0;entryDy=0;entryPerimeter=0;labelBackgroundColor=none;strokeColor=#EEEEEE;fontColor=default;" edge="1" parent="WIyWlLk6GJQsqaUBKTNV-1" source="UM6hMzColTXgQJrgNyn_-2" target="UM6hMzColTXgQJrgNyn_-1">
          <mxGeometry width="50" height="50" relative="1" as="geometry">
            <mxPoint x="250" y="390" as="sourcePoint" />
            <mxPoint x="360" y="310" as="targetPoint" />
          </mxGeometry>
        </mxCell>
        <mxCell id="UM6hMzColTXgQJrgNyn_-12" value="" style="shape=flexArrow;endArrow=classic;html=1;rounded=0;exitX=0;exitY=0;exitDx=0;exitDy=0;entryX=1.025;entryY=0.65;entryDx=0;entryDy=0;entryPerimeter=0;labelBackgroundColor=none;strokeColor=#EEEEEE;fontColor=default;" edge="1" parent="WIyWlLk6GJQsqaUBKTNV-1" source="UM6hMzColTXgQJrgNyn_-5" target="UM6hMzColTXgQJrgNyn_-1">
          <mxGeometry width="50" height="50" relative="1" as="geometry">
            <mxPoint x="400" y="390" as="sourcePoint" />
            <mxPoint x="510" y="310" as="targetPoint" />
          </mxGeometry>
        </mxCell>
        <mxCell id="UM6hMzColTXgQJrgNyn_-13" value="1.1 查詢通訊錄" style="rounded=0;whiteSpace=wrap;html=1;labelBackgroundColor=none;fillColor=#B1DDF0;strokeColor=#BAC8D3;fontColor=#182E3E;" vertex="1" parent="WIyWlLk6GJQsqaUBKTNV-1">
          <mxGeometry x="30" y="30" width="110" height="40" as="geometry" />
        </mxCell>
        <mxCell id="UM6hMzColTXgQJrgNyn_-14" value="1.2 管理通訊錄" style="rounded=0;whiteSpace=wrap;html=1;labelBackgroundColor=none;fillColor=#B1DDF0;strokeColor=#BAC8D3;fontColor=#182E3E;" vertex="1" parent="WIyWlLk6GJQsqaUBKTNV-1">
          <mxGeometry x="240" y="30" width="110" height="40" as="geometry" />
        </mxCell>
        <mxCell id="UM6hMzColTXgQJrgNyn_-15" value="2.1 查詢個人日誌" style="rounded=0;whiteSpace=wrap;html=1;labelBackgroundColor=none;fillColor=#B1DDF0;strokeColor=#BAC8D3;fontColor=#182E3E;" vertex="1" parent="WIyWlLk6GJQsqaUBKTNV-1">
          <mxGeometry x="430" y="30" width="110" height="40" as="geometry" />
        </mxCell>
        <mxCell id="UM6hMzColTXgQJrgNyn_-16" value="2.2 管理個人日誌" style="rounded=0;whiteSpace=wrap;html=1;labelBackgroundColor=none;fillColor=#B1DDF0;strokeColor=#BAC8D3;fontColor=#182E3E;" vertex="1" parent="WIyWlLk6GJQsqaUBKTNV-1">
          <mxGeometry x="670" y="30" width="110" height="40" as="geometry" />
        </mxCell>
        <mxCell id="UM6hMzColTXgQJrgNyn_-17" value="3.1 查詢備忘錄" style="rounded=0;whiteSpace=wrap;html=1;labelBackgroundColor=none;fillColor=#B1DDF0;strokeColor=#BAC8D3;fontColor=#182E3E;" vertex="1" parent="WIyWlLk6GJQsqaUBKTNV-1">
          <mxGeometry x="40" y="450" width="110" height="40" as="geometry" />
        </mxCell>
        <mxCell id="UM6hMzColTXgQJrgNyn_-23" value="3.2 管理備忘錄" style="rounded=0;whiteSpace=wrap;html=1;labelBackgroundColor=none;fillColor=#B1DDF0;strokeColor=#BAC8D3;fontColor=#182E3E;" vertex="1" parent="WIyWlLk6GJQsqaUBKTNV-1">
          <mxGeometry x="220" y="450" width="110" height="40" as="geometry" />
        </mxCell>
        <mxCell id="UM6hMzColTXgQJrgNyn_-24" value="4.1 查詢個人財務" style="rounded=0;whiteSpace=wrap;html=1;labelBackgroundColor=none;fillColor=#B1DDF0;strokeColor=#BAC8D3;fontColor=#182E3E;" vertex="1" parent="WIyWlLk6GJQsqaUBKTNV-1">
          <mxGeometry x="460" y="450" width="110" height="40" as="geometry" />
        </mxCell>
        <mxCell id="UM6hMzColTXgQJrgNyn_-25" value="4.2 管理個人財務" style="rounded=0;whiteSpace=wrap;html=1;labelBackgroundColor=none;fillColor=#B1DDF0;strokeColor=#BAC8D3;fontColor=#182E3E;" vertex="1" parent="WIyWlLk6GJQsqaUBKTNV-1">
          <mxGeometry x="650" y="450" width="110" height="40" as="geometry" />
        </mxCell>
      </root>
    </mxGraphModel>
  </diagram>
</mxfile>
